<svg version="1.1" xmlns="http://www.w3.org/2000/svg" xmlns:xlink="http://www.w3.org/1999/xlink" width="508.4985" height="397.38741" viewBox="0,0,508.4985,397.38741"><g transform="translate(14.24925,18.69367)"><g data-paper-data="{&quot;isPaintingLayer&quot;:true}" fill="#808080" fill-rule="nonzero" stroke="#000000" stroke-width="10" stroke-linecap="butt" stroke-linejoin="miter" stroke-miterlimit="10" stroke-dasharray="" stroke-dashoffset="0" style="mix-blend-mode: normal"><path d="M-7.74775,14.83486v-28.52853h496.997v28.52853z"/><path d="M456.21622,372.19225v-358.85886h30.03003v358.85886z"/><path d="M-9.24925,366.18625v-355.85586h31.53153v355.85586z"/><path d="M20.78078,373.69375v-25.52553h438.43844v25.52553z"/><path d="M235.49549,176.99702v-165.16517h33.03303v165.16517z"/><path d="M83.84384,95.91595v-24.02402h109.60961v24.02402z"/><path d="M80.84084,279.09916v-109.60961h30.03003v109.60961z"/><path d="M109.36937,189.00906v-19.51952h84.08408v19.51952z"/><path d="M161.92192,306.12613v-76.57658h31.53153v76.57658z"/><path d="M318.07808,183.00305v-33.03303h97.5976v33.03303z"/><path d="M274.53453,268.58862v-19.51952h115.61562v19.51952z"/><path d="M351.86186,106.42645v-48.04805h43.54354v48.04805z"/><path d="M315.82583,322.64268v-30.03003h28.52853v30.03003z"/><path d="M35.54805,130.45048c0,-1.38071 1.11929,-2.5 2.5,-2.5c1.38071,0 2.5,1.11929 2.5,2.5c0,1.38071 -1.11929,2.5 -2.5,2.5c-1.38071,0 -2.5,-1.11929 -2.5,-2.5z"/><path d="M55,159c0,-1.38071 1.11929,-2.5 2.5,-2.5c1.38071,0 2.5,1.11929 2.5,2.5c0,1.38071 -1.11929,2.5 -2.5,2.5c-1.38071,0 -2.5,-1.11929 -2.5,-2.5z"/><path d="M36,188.00005c0,-1.38071 1.11929,-2.5 2.5,-2.5c1.38071,0 2.5,1.11929 2.5,2.5c0,1.38071 -1.11929,2.5 -2.5,2.5c-1.38071,0 -2.5,-1.11929 -2.5,-2.5z"/><path d="M61,216.00005c0,-1.38071 1.11929,-2.5 2.5,-2.5c1.38071,0 2.5,1.11929 2.5,2.5c0,1.38071 -1.11929,2.5 -2.5,2.5c-1.38071,0 -2.5,-1.11929 -2.5,-2.5z"/><path d="M37,231.00005c0,-1.38071 1.11929,-2.5 2.5,-2.5c1.38071,0 2.5,1.11929 2.5,2.5c0,1.38071 -1.11929,2.5 -2.5,2.5c-1.38071,0 -2.5,-1.11929 -2.5,-2.5z"/><path d="M55.5,337.50006c0,-17.94925 14.55075,-32.5 32.5,-32.5c17.94925,0 32.5,14.55075 32.5,32.5c0,17.94925 -14.55075,32.5 -32.5,32.5c-17.94925,0 -32.5,-14.55075 -32.5,-32.5z"/></g></g></svg>