<svg version="1.1" xmlns="http://www.w3.org/2000/svg" xmlns:xlink="http://www.w3.org/1999/xlink" width="500.4985" height="387.3874" viewBox="0,0,500.4985,387.3874"><g transform="translate(10.24925,13.69368)"><g data-paper-data="{&quot;isPaintingLayer&quot;:true}" fill="#808080" fill-rule="nonzero" stroke="none" stroke-linecap="butt" stroke-linejoin="miter" stroke-miterlimit="10" stroke-dasharray="" stroke-dashoffset="0" style="mix-blend-mode: normal"><path d="M-8.74775,14.83486v-28.52853h496.997v28.52853z" stroke-width="0"/><path d="M455.21622,372.19223v-358.85886h30.03003v358.85886z" stroke-width="0"/><path d="M-10.24925,366.18623v-355.85586h31.53153v355.85586z" stroke-width="0"/><path d="M19.78078,373.69373v-25.52553h438.43844v25.52553z" stroke-width="0"/><path d="M234.49549,176.99702v-165.16517h33.03303v165.16517z" stroke-width="0"/><path d="M82.84384,95.91594v-24.02402h109.60961v24.02402z" stroke-width="0"/><path d="M79.84084,279.09914v-109.60961h30.03003v109.60961z" stroke-width="0"/><path d="M108.36937,189.00904v-19.51952h84.08408v19.51952z" stroke-width="0"/><path d="M160.92192,306.12613v-76.57658h31.53153v76.57658z" stroke-width="0"/><path d="M317.07808,183.00303v-33.03303h97.5976v33.03303z" stroke-width="0"/><path d="M273.53453,268.5886v-19.51952h115.61562v19.51952z" stroke-width="0"/><path d="M350.86186,106.42645v-48.04805h43.54354v48.04805z" stroke-width="0"/><path d="M314.82583,322.64267v-30.03003h28.52853v30.03003z" stroke-width="0"/><path d="M34.54805,130.45048c0,-1.38071 1.11929,-2.5 2.5,-2.5c1.38071,0 2.5,1.11929 2.5,2.5c0,1.38071 -1.11929,2.5 -2.5,2.5c-1.38071,0 -2.5,-1.11929 -2.5,-2.5z" stroke-width="0.5"/><path d="M54,159.00001c0,-1.38071 1.11929,-2.5 2.5,-2.5c1.38071,0 2.5,1.11929 2.5,2.5c0,1.38071 -1.11929,2.5 -2.5,2.5c-1.38071,0 -2.5,-1.11929 -2.5,-2.5z" stroke-width="0.5"/><path d="M35,188.00003c0,-1.38071 1.11929,-2.5 2.5,-2.5c1.38071,0 2.5,1.11929 2.5,2.5c0,1.38071 -1.11929,2.5 -2.5,2.5c-1.38071,0 -2.5,-1.11929 -2.5,-2.5z" stroke-width="0.5"/><path d="M60,216.00003c0,-1.38071 1.11929,-2.5 2.5,-2.5c1.38071,0 2.5,1.11929 2.5,2.5c0,1.38071 -1.11929,2.5 -2.5,2.5c-1.38071,0 -2.5,-1.11929 -2.5,-2.5z" stroke-width="0.5"/><path d="M36,231.00003c0,-1.38071 1.11929,-2.5 2.5,-2.5c1.38071,0 2.5,1.11929 2.5,2.5c0,1.38071 -1.11929,2.5 -2.5,2.5c-1.38071,0 -2.5,-1.11929 -2.5,-2.5z" stroke-width="0.5"/><path d="M-6.74775,14.83486v-28.52853h496.997v28.52853z" stroke-width="0"/><path d="M457.21622,372.19223v-358.85886h30.03003v358.85886z" stroke-width="0"/><path d="M-8.24925,366.18623v-355.85586h31.53153v355.85586z" stroke-width="0"/><path d="M21.78078,373.69373v-25.52553h438.43844v25.52553z" stroke-width="0"/><path d="M236.49549,176.99702v-165.16517h33.03303v165.16517z" stroke-width="0"/><path d="M84.84384,95.91594v-24.02402h109.60961v24.02402z" stroke-width="0"/><path d="M81.84084,279.09914v-109.60961h30.03003v109.60961z" stroke-width="0"/><path d="M110.36937,189.00904v-19.51952h84.08408v19.51952z" stroke-width="0"/><path d="M162.92192,306.12613v-76.57658h31.53153v76.57658z" stroke-width="0"/><path d="M319.07808,183.00303v-33.03303h97.5976v33.03303z" stroke-width="0"/><path d="M275.53453,268.5886v-19.51952h115.61562v19.51952z" stroke-width="0"/><path d="M352.86186,106.42645v-48.04805h43.54354v48.04805z" stroke-width="0"/><path d="M316.82583,322.64268v-30.03003h28.52853v30.03003z" stroke-width="0"/><path d="M36.54805,130.45048c0,-1.38071 1.11929,-2.5 2.5,-2.5c1.38071,0 2.5,1.11929 2.5,2.5c0,1.38071 -1.11929,2.5 -2.5,2.5c-1.38071,0 -2.5,-1.11929 -2.5,-2.5z" stroke-width="0.5"/><path d="M56,159c0,-1.38071 1.11929,-2.5 2.5,-2.5c1.38071,0 2.5,1.11929 2.5,2.5c0,1.38071 -1.11929,2.5 -2.5,2.5c-1.38071,0 -2.5,-1.11929 -2.5,-2.5z" stroke-width="0.5"/><path d="M37,188.00003c0,-1.38071 1.11929,-2.5 2.5,-2.5c1.38071,0 2.5,1.11929 2.5,2.5c0,1.38071 -1.11929,2.5 -2.5,2.5c-1.38071,0 -2.5,-1.11929 -2.5,-2.5z" stroke-width="0.5"/><path d="M62,216.00003c0,-1.38071 1.11929,-2.5 2.5,-2.5c1.38071,0 2.5,1.11929 2.5,2.5c0,1.38071 -1.11929,2.5 -2.5,2.5c-1.38071,0 -2.5,-1.11929 -2.5,-2.5z" stroke-width="0.5"/><path d="M38,231.00003c0,-1.38071 1.11929,-2.5 2.5,-2.5c1.38071,0 2.5,1.11929 2.5,2.5c0,1.38071 -1.11929,2.5 -2.5,2.5c-1.38071,0 -2.5,-1.11929 -2.5,-2.5z" stroke-width="0.5"/><path d="M73.69443,366.65624v-64h27v64z" stroke-width="0"/></g></g></svg>